<svg width="50" height="50" viewBox="0 0 50 50" fill="none" xmlns="http://www.w3.org/2000/svg">
<mask id="path-1-inside-1_38_28" fill="white">
<path d="M25 0C11.1875 0 0 11.4705 0 25.6323C0 36.9747 7.15625 46.5547 17.0938 49.951C18.3438 50.1753 18.8125 49.4063 18.8125 48.7335C18.8125 48.1247 18.7812 46.1062 18.7812 43.9595C12.5 45.145 10.875 42.3895 10.375 40.9477C10.0938 40.2107 8.875 37.9359 7.8125 37.3271C6.9375 36.8465 5.6875 35.661 7.78125 35.629C9.75 35.5969 11.1562 37.4873 11.625 38.2563C13.875 42.1332 17.4688 41.0438 18.9062 40.3709C19.125 38.7048 19.7812 37.5834 20.5 36.9426C14.9375 36.3018 9.125 34.091 9.125 24.2866C9.125 21.4991 10.0938 19.1922 11.6875 17.398C11.4375 16.7571 10.5625 14.1298 11.9375 10.6054C11.9375 10.6054 14.0312 9.93253 18.8125 13.2327C20.8125 12.656 22.9375 12.3676 25.0625 12.3676C27.1875 12.3676 29.3125 12.656 31.3125 13.2327C36.0938 9.90049 38.1875 10.6054 38.1875 10.6054C39.5625 14.1298 38.6875 16.7571 38.4375 17.398C40.0312 19.1922 41 21.4671 41 24.2866C41 34.1231 35.1562 36.3018 29.5938 36.9426C30.5 37.7436 31.2812 39.2816 31.2812 41.6846C31.2812 45.1129 31.25 47.8684 31.25 48.7335C31.25 49.4063 31.7188 50.2074 32.9688 49.951C37.932 48.2336 42.2448 44.9634 45.3001 40.6009C48.3553 36.2383 49.9991 31.0031 50 25.6323C50 11.4705 38.8125 0 25 0Z"/>
</mask>
<path d="M25 0C11.1875 0 0 11.4705 0 25.6323C0 36.9747 7.15625 46.5547 17.0938 49.951C18.3438 50.1753 18.8125 49.4063 18.8125 48.7335C18.8125 48.1247 18.7812 46.1062 18.7812 43.9595C12.5 45.145 10.875 42.3895 10.375 40.9477C10.0938 40.2107 8.875 37.9359 7.8125 37.3271C6.9375 36.8465 5.6875 35.661 7.78125 35.629C9.75 35.5969 11.1562 37.4873 11.625 38.2563C13.875 42.1332 17.4688 41.0438 18.9062 40.3709C19.125 38.7048 19.7812 37.5834 20.5 36.9426C14.9375 36.3018 9.125 34.091 9.125 24.2866C9.125 21.4991 10.0938 19.1922 11.6875 17.398C11.4375 16.7571 10.5625 14.1298 11.9375 10.6054C11.9375 10.6054 14.0312 9.93253 18.8125 13.2327C20.8125 12.656 22.9375 12.3676 25.0625 12.3676C27.1875 12.3676 29.3125 12.656 31.3125 13.2327C36.0938 9.90049 38.1875 10.6054 38.1875 10.6054C39.5625 14.1298 38.6875 16.7571 38.4375 17.398C40.0312 19.1922 41 21.4671 41 24.2866C41 34.1231 35.1562 36.3018 29.5938 36.9426C30.5 37.7436 31.2812 39.2816 31.2812 41.6846C31.2812 45.1129 31.25 47.8684 31.25 48.7335C31.25 49.4063 31.7188 50.2074 32.9688 49.951C37.932 48.2336 42.2448 44.9634 45.3001 40.6009C48.3553 36.2383 49.9991 31.0031 50 25.6323C50 11.4705 38.8125 0 25 0Z" fill="#221954"/>
<path d="M17.0938 49.951L13.0513 61.7793L13.9506 62.0867L14.8862 62.2546L17.0938 49.951ZM18.7812 43.9595H31.2812V28.8796L16.463 31.6763L18.7812 43.9595ZM10.375 40.9477L22.185 36.8521L22.122 36.6704L22.0534 36.4906L10.375 40.9477ZM7.8125 37.3271L14.0267 26.4812L13.929 26.4252L13.8303 26.371L7.8125 37.3271ZM7.78125 35.629L7.97251 48.1275L7.98465 48.1273L7.78125 35.629ZM11.625 38.2563L22.4362 31.9819L22.3685 31.8652L22.2983 31.75L11.625 38.2563ZM18.9062 40.3709L24.2054 51.6921L30.4083 48.7887L31.2999 41.9982L18.9062 40.3709ZM20.5 36.9426L28.8185 46.2729L49.6323 27.716L21.9306 24.5247L20.5 36.9426ZM11.6875 17.398L21.0331 25.6992L26.1126 19.9805L23.3327 12.8548L11.6875 17.398ZM11.9375 10.6054L8.11312 -1.29521L2.4531 0.523696L0.292339 6.06223L11.9375 10.6054ZM18.8125 13.2327L11.7118 23.5201L16.5857 26.8842L22.2759 25.2433L18.8125 13.2327ZM31.3125 13.2327L27.8491 25.2433L33.5726 26.8938L38.4596 23.4879L31.3125 13.2327ZM38.1875 10.6054L49.8327 6.06223L47.7102 0.62196L42.1758 -1.24127L38.1875 10.6054ZM38.4375 17.398L26.7923 12.8548L24.0124 19.9805L29.0919 25.6992L38.4375 17.398ZM29.5938 36.9426L28.1632 24.5247L0.301142 27.7345L21.3155 46.3085L29.5938 36.9426ZM32.9688 49.951L35.4797 62.1962L36.2822 62.0317L37.0563 61.7638L32.9688 49.951ZM50 25.6323L62.5 25.6344V25.6323H50ZM25 -12.5C3.99143 -12.5 -12.5 4.8631 -12.5 25.6323H12.5C12.5 18.0779 18.3836 12.5 25 12.5V-12.5ZM-12.5 25.6323C-12.5 42.3249 -1.94019 56.6558 13.0513 61.7793L21.1362 38.1227C16.2527 36.4537 12.5 31.6245 12.5 25.6323H-12.5ZM14.8862 62.2546C18.3388 62.8741 23.0086 62.3984 26.8253 58.9324C30.2938 55.7826 31.3125 51.7159 31.3125 48.7335H6.3125C6.3125 46.424 7.09681 43.0781 10.0184 40.425C13.2882 37.4556 17.0987 37.2523 19.3013 37.6475L14.8862 62.2546ZM31.3125 48.7335C31.3125 48.3526 31.3034 47.5705 31.2963 46.8082C31.2887 45.9738 31.2812 44.9765 31.2812 43.9595H6.28125C6.28125 45.0892 6.28946 46.1745 6.2974 47.0382C6.30602 47.9741 6.3125 48.5056 6.3125 48.7335H31.3125ZM16.463 31.6763C15.1482 31.9245 16.4772 31.3584 18.6405 32.6022C20.9023 33.9025 21.8541 35.8979 22.185 36.8521L-1.43502 45.0432C-0.604115 47.4392 1.41023 51.5333 6.17983 54.2755C10.851 56.961 16.133 57.18 21.0995 56.2426L16.463 31.6763ZM22.0534 36.4906C21.5304 35.1204 20.7121 33.5937 19.9085 32.3408C19.4654 31.6501 18.8532 30.7689 18.0819 29.8757C17.4262 29.1165 16.0694 27.6516 14.0267 26.4812L1.59826 48.173C0.762189 47.694 0.18159 47.2129 -0.14217 46.9218C-0.483054 46.6152 -0.714184 46.3604 -0.838693 46.2163C-1.07389 45.9439 -1.16466 45.7917 -1.13505 45.8378C-1.12113 45.8595 -1.0937 45.9066 -1.07543 45.9416C-1.0214 46.0451 -1.13328 45.8504 -1.30338 45.4047L22.0534 36.4906ZM13.8303 26.371C14.3234 26.6419 14.8121 26.9695 15.3144 27.4033C15.5508 27.6075 17.0573 28.8722 18.1068 31.2343C18.691 32.5492 19.4969 35.0341 18.9609 38.1636C18.3677 41.6276 16.4173 44.2309 14.2983 45.8263C12.442 47.2239 10.6746 47.7128 9.84784 47.8958C8.93299 48.0984 8.24756 48.1233 7.97251 48.1275L7.58999 23.1304C6.72564 23.1437 2.8394 23.1602 -0.738748 25.8542C-3.02133 27.5727 -5.05986 30.3207 -5.68031 33.9436C-6.24348 37.2321 -5.40391 39.8902 -4.73959 41.3853C-3.52992 44.1079 -1.67777 45.7611 -1.02633 46.3237C-0.108944 47.116 0.864089 47.772 1.7947 48.2832L13.8303 26.371ZM7.98465 48.1273C4.76408 48.1797 2.73289 46.6511 2.11233 46.1171C1.45505 45.5515 1.132 45.0583 0.951719 44.7625L22.2983 31.75C21.6492 30.6853 20.3887 28.8624 18.4189 27.1673C16.4859 25.5039 12.7672 23.0462 7.57785 23.1306L7.98465 48.1273ZM0.813808 44.5307C3.96704 49.9639 9.01891 52.9575 14.397 53.4646C18.9058 53.8897 22.5276 52.4775 24.2054 51.6921L13.6072 29.0497C13.8474 28.9373 14.9536 28.4062 16.7436 28.5749C17.7978 28.6743 19.0507 29.0222 20.2484 29.7888C21.4469 30.5559 22.124 31.4439 22.4362 31.9819L0.813808 44.5307ZM31.2999 41.9982C31.1939 42.8057 30.6877 44.6063 28.8185 46.2729L12.1815 27.6124C8.87484 30.5605 7.05615 34.604 6.51262 38.7437L31.2999 41.9982ZM21.9306 24.5247C21.5125 24.4766 21.1782 24.4233 20.9111 24.3689C20.644 24.3144 20.4791 24.2658 20.3945 24.2371C20.2242 24.1793 20.4942 24.2425 20.9041 24.5969C21.1087 24.7739 21.3008 24.9836 21.4615 25.2107C21.6215 25.4369 21.7066 25.6184 21.7425 25.7091C21.8104 25.8808 21.625 25.5249 21.625 24.2866H-3.375C-3.375 31.8139 -1.0224 38.6858 4.54907 43.505C9.57843 47.8553 15.502 48.9495 19.0694 49.3605L21.9306 24.5247ZM21.625 24.2866C21.625 24.3663 21.6062 24.6166 21.4778 24.951C21.3514 25.2801 21.1785 25.5354 21.0331 25.6992L2.34191 9.09676C-1.24216 13.1317 -3.375 18.377 -3.375 24.2866H21.625ZM23.3327 12.8548C23.5366 13.3774 23.6478 13.8354 23.6757 14.2555C23.7062 14.7159 23.6278 15.0328 23.5827 15.1485L0.292339 6.06223C-2.61635 13.5179 -0.880414 19.5759 0.0423388 21.9411L23.3327 12.8548ZM11.9375 10.6054C15.7619 22.506 15.7497 22.5099 15.7376 22.5138C15.7335 22.5151 15.7213 22.5189 15.7132 22.5215C15.697 22.5266 15.6808 22.5317 15.6647 22.5368C15.6323 22.5469 15.6 22.5568 15.5677 22.5666C15.5031 22.5862 15.4387 22.6052 15.3745 22.6235C15.246 22.6602 15.1184 22.6943 14.9917 22.726C14.7381 22.7893 14.4891 22.8425 14.2452 22.8863C13.7561 22.9741 13.296 23.0224 12.87 23.0405C12.0097 23.0771 11.3476 22.9879 10.9205 22.8948C10.089 22.7136 10.3189 22.5586 11.7118 23.5201L25.9132 2.94531C22.5249 0.606602 19.3172 -0.862071 16.2436 -1.53188C14.6954 -1.86927 13.211 -1.9965 11.8087 -1.93692C11.1117 -1.9073 10.4507 -1.83216 9.82839 -1.72045C9.51795 -1.66473 9.21931 -1.6003 8.93271 -1.5287C8.78949 -1.49293 8.64953 -1.45543 8.51285 -1.41641C8.44452 -1.39691 8.37704 -1.37704 8.31041 -1.35683C8.27709 -1.34672 8.24399 -1.33653 8.21111 -1.32626C8.19467 -1.32112 8.17828 -1.31597 8.16195 -1.31079C8.15379 -1.3082 8.14157 -1.30432 8.1375 -1.30302C8.1253 -1.29912 8.11312 -1.29521 11.9375 10.6054ZM22.2759 25.2433C23.0941 25.0074 24.0494 24.8676 25.0625 24.8676V-0.132394C21.8256 -0.132394 18.5309 0.304554 15.3491 1.22209L22.2759 25.2433ZM25.0625 24.8676C26.0756 24.8676 27.0309 25.0074 27.8491 25.2433L34.7759 1.22209C31.5941 0.304554 28.2994 -0.132394 25.0625 -0.132394V24.8676ZM38.4596 23.4879C39.8417 22.5246 40.0419 22.7034 39.1628 22.8918C38.7113 22.9886 38.0241 23.0764 37.1399 23.0306C36.7024 23.008 36.2322 22.9534 35.7346 22.858C35.4866 22.8105 35.2339 22.7532 34.9772 22.6855C34.8489 22.6517 34.7199 22.6154 34.5901 22.5765C34.5252 22.557 34.4602 22.5369 34.395 22.5162C34.3624 22.5058 34.3298 22.4953 34.2972 22.4846C34.2809 22.4792 34.2645 22.4739 34.2482 22.4684C34.24 22.4657 34.2278 22.4616 34.2237 22.4603C34.2114 22.4562 34.1992 22.452 38.1875 10.6054C42.1758 -1.24127 42.1636 -1.2454 42.1513 -1.24951C42.1472 -1.25089 42.1348 -1.25499 42.1266 -1.25773C42.1101 -1.2632 42.0936 -1.26864 42.077 -1.27407C42.0439 -1.28493 42.0105 -1.29571 41.9769 -1.3064C41.9097 -1.3278 41.8416 -1.34885 41.7726 -1.36954C41.6346 -1.41093 41.4932 -1.45082 41.3484 -1.48898C41.0587 -1.56534 40.7564 -1.63451 40.4418 -1.69483C39.811 -1.81575 39.1399 -1.89935 38.4314 -1.936C37.0052 -2.00977 35.4957 -1.88999 33.9231 -1.55291C30.8019 -0.883879 27.5645 0.60856 24.1654 2.97754L38.4596 23.4879ZM26.5423 15.1485C26.4972 15.0328 26.4188 14.7159 26.4493 14.2555C26.4772 13.8354 26.5884 13.3774 26.7923 12.8548L50.0827 21.9411C51.0054 19.5759 52.7414 13.5179 49.8327 6.06223L26.5423 15.1485ZM29.0919 25.6992C28.9683 25.56 28.7883 25.305 28.6525 24.9526C28.5146 24.5948 28.5 24.3379 28.5 24.2866H53.5C53.5 18.3243 51.3532 13.116 47.7831 9.09676L29.0919 25.6992ZM28.5 24.2866C28.5 25.5306 28.3133 25.8846 28.3834 25.708C28.4205 25.6147 28.5073 25.4306 28.6696 25.2023C28.8325 24.9731 29.0267 24.7625 29.2324 24.5856C29.6438 24.2318 29.9117 24.1716 29.7321 24.2321C29.6432 24.2621 29.4735 24.3116 29.2008 24.3668C28.928 24.422 28.5879 24.4758 28.1632 24.5247L31.0243 49.3605C34.5587 48.9533 40.4907 47.8769 45.5332 43.5404C51.1331 38.7246 53.5 31.8386 53.5 24.2866H28.5ZM21.3155 46.3085C18.9038 44.1769 18.7812 41.9217 18.7812 41.6846H43.7812C43.7812 36.6414 42.0962 31.3104 37.872 27.5767L21.3155 46.3085ZM18.7812 41.6846C18.7812 43.3618 18.7736 44.8787 18.7659 46.0906C18.7585 47.2499 18.75 48.2482 18.75 48.7335H43.75C43.75 48.3537 43.7571 47.5418 43.7654 46.2499C43.7733 45.0108 43.7812 43.4357 43.7812 41.6846H18.7812ZM18.75 48.7335C18.75 51.6596 19.7318 55.7104 23.1637 58.8772C27.044 62.4578 31.8679 62.9369 35.4797 62.1962L30.4578 37.7058C32.8196 37.2215 36.7841 37.4282 40.1176 40.5042C43.0026 43.1664 43.75 46.4803 43.75 48.7335H18.75ZM37.0563 61.7638C44.5451 59.1725 50.9961 54.2579 55.5389 47.7714L35.0613 33.4303C33.4935 35.6689 31.3188 37.2948 28.8812 38.1382L37.0563 61.7638ZM55.5389 47.7714C60.0787 41.2891 62.4987 33.547 62.5 25.6344L37.5 25.6303C37.4995 28.4592 36.632 31.1875 35.0613 33.4303L55.5389 47.7714ZM62.5 25.6323C62.5 4.8631 46.0086 -12.5 25 -12.5V12.5C31.6164 12.5 37.5 18.0779 37.5 25.6323H62.5Z" fill="#221954" mask="url(#path-1-inside-1_38_28)"/>
</svg>
