<svg width="50" height="50" viewBox="0 0 50 50" fill="none" xmlns="http://www.w3.org/2000/svg">
<path d="M16.5865 12.1765L16.5865 12.1743C16.5614 11.0359 16.1421 10.0286 15.3944 9.30581C14.6465 8.58285 13.5768 8.15101 12.2625 8.15101H12.2625C10.9486 8.15101 9.85536 8.58265 9.08973 9.30499C8.32392 10.0275 7.89164 11.0356 7.89164 12.1765C7.89164 14.4143 9.57684 16.2004 12.1641 16.2004H12.2125C13.5518 16.2004 14.6461 15.7566 15.4062 15.0282C16.1663 14.2999 16.5865 13.2923 16.5865 12.1765ZM29.9402 19.8835C28.9759 20.5509 28.3107 21.3709 27.8207 22.0901V19.2039V19.1039H27.7207H20.1682H20.0635L20.0683 19.2085C20.1177 20.2713 20.1178 25.9479 20.1054 31.3639C20.0992 34.0708 20.0899 36.7111 20.0821 38.6746C20.0783 39.6564 20.0748 40.469 20.0723 41.0362L20.0693 41.6933L20.0685 41.8659L20.0683 41.9101L20.0682 41.9212L20.0682 41.9241L20.0682 41.9248C20.0682 41.9249 20.0682 41.925 20.1682 41.9255L20.0682 41.925L20.0677 42.0255H20.1682H27.7192H27.8192V41.9255V29.2364C27.8192 28.5578 27.8688 27.8975 28.0601 27.432L28.0604 27.4313C28.5968 26.0982 29.8112 24.7327 31.8431 24.7327C33.1799 24.7327 34.1037 25.2401 34.6979 26.1126C35.2965 26.9916 35.5686 28.2527 35.5686 29.7708V41.9255V42.0255H35.6686H43.2195H43.3195V41.9255V28.8973C43.3195 25.3907 42.3836 22.8072 40.8097 21.0994C39.2559 19.4136 37.0914 18.5931 34.6262 18.5715V18.571H34.5262C32.5028 18.571 31.0323 19.1275 29.9402 19.8835ZM8.43704 19.1055H8.33704V19.2055V41.9256V42.0256H8.43704H15.988H16.088V41.9256V19.2055V19.1055H15.988H8.43704ZM0.1 9.79813C0.1 4.46506 4.46515 0.1 9.79813 0.1H40.2035C45.5365 0.1 49.9 4.46513 49.9 9.79813V40.2035C49.9 45.5365 45.5365 49.9 40.2035 49.9H9.79813C4.46503 49.9 0.1 45.5364 0.1 40.2035V9.79813Z" fill="#221954" stroke="#221954" stroke-width="0.2"/>
</svg>
