<svg width="50" height="50" viewBox="0 0 50 50" fill="none" xmlns="http://www.w3.org/2000/svg">
<path d="M45.4519 45.4549V30.683C45.4519 30.0803 45.6914 29.5022 46.1176 29.076C46.5438 28.6498 47.1218 28.4104 47.7245 28.4104C48.3273 28.4104 48.9053 28.6498 49.3315 29.076C49.7577 29.5022 49.9971 30.0803 49.9971 30.683V47.7275C49.9971 48.3302 49.7577 48.9082 49.3315 49.3344C48.9053 49.7606 48.3273 50.0001 47.7245 50.0001H2.2726C1.66987 50.0001 1.09182 49.7606 0.665629 49.3344C0.239434 48.9082 0 48.3302 0 47.7275V2.27553C0 1.6728 0.239434 1.09475 0.665629 0.668558C1.09182 0.242364 1.66987 0.00292969 2.2726 0.00292969H19.3171C19.9198 0.00292969 20.4978 0.242364 20.924 0.668558C21.3502 1.09475 21.5897 1.6728 21.5897 2.27553C21.5897 2.87826 21.3502 3.4563 20.924 3.88249C20.4978 4.30869 19.9198 4.54812 19.3171 4.54812H4.54519V45.4549H45.4519Z" fill="#221954"/>
<path d="M26.6076 26.6104C26.1809 27.0372 25.6021 27.2769 24.9986 27.2769C24.3951 27.2769 23.8163 27.0372 23.3896 26.6104C22.9629 26.1837 22.7231 25.6049 22.7231 25.0014C22.7231 24.3979 22.9629 23.8192 23.3896 23.3924L46.1156 0.66647C46.3269 0.455173 46.5777 0.287563 46.8538 0.17321C47.1299 0.0588569 47.4258 0 47.7246 0C48.0234 0 48.3193 0.0588569 48.5954 0.17321C48.8714 0.287563 49.1223 0.455173 49.3336 0.66647C49.5449 0.877766 49.7125 1.12861 49.8268 1.40468C49.9412 1.68076 50 1.97665 50 2.27547C50 2.57429 49.9412 2.87018 49.8268 3.14625C49.7125 3.42233 49.5449 3.67317 49.3336 3.88447L26.6076 26.6104Z" fill="#221954"/>
<path d="M49.9971 18.1837C49.9971 18.7864 49.7577 19.3645 49.3315 19.7907C48.9053 20.2169 48.3272 20.4563 47.7245 20.4563C47.1218 20.4563 46.5437 20.2169 46.1175 19.7907C45.6913 19.3645 45.4519 18.7864 45.4519 18.1837V2.27553C45.4519 1.6728 45.6913 1.09475 46.1175 0.668558C46.5437 0.242364 47.1218 0.00292969 47.7245 0.00292969C48.3272 0.00292969 48.9053 0.242364 49.3315 0.668558C49.7577 1.09475 49.9971 1.6728 49.9971 2.27553V18.1837Z" fill="#221954"/>
<path d="M31.8163 4.54812C31.2136 4.54812 30.6355 4.30869 30.2093 3.88249C29.7831 3.4563 29.5437 2.87826 29.5437 2.27553C29.5437 1.6728 29.7831 1.09475 30.2093 0.668558C30.6355 0.242364 31.2136 0.00292969 31.8163 0.00292969H47.7245C48.3272 0.00292969 48.9053 0.242364 49.3314 0.668558C49.7576 1.09475 49.9971 1.6728 49.9971 2.27553C49.9971 2.87826 49.7576 3.4563 49.3314 3.88249C48.9053 4.30869 48.3272 4.54812 47.7245 4.54812H31.8163Z" fill="#221954"/>
</svg>
